<svg version="1" xmlns="http://www.w3.org/2000/svg" width="1333.333" height="1333.333" viewBox="0 0 1000.000000 1000.000000"><path d="M505.9 3.3c-1.9 1.2-4.7 4.7-6.4 7.7l-3 5.5-.3 55.5c-.1 30.5 0 56.5.3 57.7.4 1.6 1.3 2.3 2.9 2.3 2.3 0 5.1-2 16.8-11.9 11.3-9.7 26-15 37.8-13.6 3 .3 11.7 2.2 19.3 4.1 25.3 6.4 33.4 6.3 46.6-.2 8.7-4.3 22.8-17.2 29.1-26.7 6.6-9.8 5.1-11.6-6-7.7-3.3 1.2-8.2 1.9-12.3 2-14.3 0-25.9-6.9-45.2-27-35.8-37.2-42.7-43.1-55.3-47.7-8.8-3.2-19.6-3.2-24.3 0zM496.5 139.4c-2.8 1.3-171.3 140.1-177.9 146.6-1.6 1.5-2.5 3.3-2.2 3.9.5.8 9.9 1.1 30.7 1.1H377v33.7l-.1 33.8-13.9 11.9c-7.7 6.5-13.8 12.1-13.6 12.5.2.3 4.3 7.6 9.1 16.1 42 74.2 65.6 107.1 94 130.8 40 33.5 82.1 43.2 135.3 31.2 16.1-3.6 30.1-8.7 80.7-29.3 6.1-2.5 26.1-10.6 44.5-18 49.2-19.9 60.1-24.4 60.8-25.2.4-.4-.7-1.9-2.4-3.3-1.8-1.5-35.6-30.8-75.3-65.2L624 357.5V290h30c24 0 30-.3 30-1.3 0-1.9-3.2-4.7-34.5-30.3-15.4-12.7-53.4-43.9-84.5-69.5s-57.6-47.2-59-48.1c-3.9-2.5-6.3-2.8-9.5-1.4zm32 244.1c31.5 8.2 53.5 39 53.5 75.2 0 42.5-33.9 73.5-71 64.7-44.1-10.4-67.7-65.9-46.4-109.3 7.2-14.6 22.1-26.9 37-30.5 7.9-1.9 19.7-1.9 26.9-.1zM184.5 520.1C122.9 572.3 71 616.5 69.3 618.2c-3.7 3.6-4.3 7.2-1.4 8.8 1.3.6 21.3 1 58 1H182l.2 81.9.3 81.9 11.1-2.9c25-6.4 54.1-17.4 76.6-28.8 51.7-26.2 83.7-57.5 100.2-97.9 9.7-24.1 12.4-54.6 7-81.1-5.4-26.6-13.2-43.9-42.2-93.1-10.5-17.8-38.2-63-38.5-63-.1 0-50.6 42.8-112.2 95.1zM806 541.9c-32.4 13.4-48.6 20.7-76 34.2-87.6 43.3-141.6 83.9-159.9 120.5-11.7 23.4-10.2 56.3 4.4 92.7 2.5 6.2 13.6 29.4 24.8 51.7 19.3 38.5 21.4 43.4 43.7 99.7l23.5 59.3 71.2-.3c70.4-.2 71.2-.2 74-2.3 1.5-1.1 3.8-3.6 5.1-5.4l2.2-3.3V629h56.5c55.2 0 56.5 0 58.5-2 1.1-1.1 2-2.4 2-2.9 0-2.4-8.7-10.1-53.9-47.9-26.7-22.3-49.5-41.3-50.6-42.2-1.9-1.7-2.9-1.4-25.5 7.9zM392.7 831.1c-31.6 2.6-96.3 19.6-183 48.2l-27.8 9.1.3 50.6.3 50.5 2.3 3.3c1.3 1.8 3.8 4 5.5 5 3 1.6 14.7 1.7 187 2 101 .1 183.7 0 183.7-.2 0-3.1-6.9-23.5-14-41.2-11.6-29.1-25.7-54.5-41.8-75.6-33.2-43.2-60.9-56-112.5-51.7z"/></svg>